<svg viewBox="0 0 251 250" fill="none" xmlns="http://www.w3.org/2000/svg">
    <g id="dripl-logo" clip-path="url(#clip0_1239_8966)">
        <g id="Group">
            <path id="Vector"
                  d="M125.5 0C100.777 0 76.6099 7.33108 56.0538 21.066C35.4977 34.801 19.476 54.3229 10.015 77.1633C0.554079 100.004 -1.92123 125.137 2.90192 149.384C7.72508 173.631 19.6302 195.904 37.1118 213.385C54.5933 230.866 76.8661 242.771 101.114 247.594C125.361 252.417 150.495 249.942 173.336 240.481C196.176 231.02 215.699 214.999 229.434 194.443C243.169 173.887 250.5 149.72 250.5 124.998C250.466 91.8569 237.286 60.0827 213.851 36.6483C190.416 13.214 158.642 0.0337304 125.5 0ZM176.931 176.511H176.5C167.869 176.512 159.379 174.323 151.825 170.147C144.271 165.972 137.9 159.948 133.31 152.639C132.499 151.292 131.355 150.177 129.986 149.403C128.618 148.629 127.072 148.222 125.5 148.222C123.928 148.222 122.382 148.629 121.014 149.403C119.646 150.177 118.501 151.292 117.691 152.639C113.1 159.948 106.729 165.972 99.1755 170.147C91.6216 174.322 83.1316 176.512 74.5006 176.511H74.0691C63.7579 176.301 53.8574 172.429 46.14 165.587C38.4226 158.746 33.3917 149.381 31.9474 139.17C30.9171 132.266 30.6417 125.27 31.1256 118.307C32.0489 105.624 35.5194 93.2564 41.3299 81.9447C47.1403 70.6329 55.1712 60.6084 64.9431 52.4702C74.7149 44.3319 86.0272 38.2471 98.2036 34.5789C110.38 30.9108 123.171 29.7347 135.812 31.121C148.453 32.5074 160.686 36.4276 171.778 42.6476C182.87 48.8676 192.594 57.2597 200.37 67.3223C208.145 77.385 213.813 88.9117 217.034 101.214C220.254 113.516 220.962 126.341 219.114 138.923C217.707 149.183 212.686 158.605 204.954 165.495C197.222 172.385 187.286 176.291 176.931 176.511Z"
                  fill="#F2CB57"/>
            <path id="Vector_2"
                  d="M125.492 120.231C137.039 120.231 146.4 110.87 146.4 99.3224C146.4 87.775 137.039 78.4141 125.492 78.4141C113.944 78.4141 104.583 87.775 104.583 99.3224C104.583 110.87 113.944 120.231 125.492 120.231Z"
                  fill="#F2CB57"/>
            <g id="Group_2">
                <path id="Vector_3"
                      d="M139.927 111.532C137.802 114.051 135.055 115.97 131.959 117.1C128.864 118.23 125.526 118.531 122.278 117.973C118.993 117.408 115.917 115.985 113.359 113.848C110.802 111.711 108.854 108.936 107.715 105.804C106.575 102.672 106.284 99.2947 106.87 96.0139C107.456 92.7331 108.899 89.6655 111.053 87.122C112.828 85.0194 115.04 83.3295 117.535 82.1702C120.03 81.0109 122.749 80.4103 125.501 80.4102C126.573 80.4107 127.643 80.4959 128.702 80.665C131.99 81.2281 135.07 82.6509 137.63 84.789C140.19 86.9271 142.139 89.7044 143.279 92.839C144.419 95.9735 144.709 99.3539 144.12 102.637C143.532 105.92 142.085 108.989 139.927 111.532Z"
                      fill="#F2CB57"/>
            </g>
        </g>
    </g>
    <defs>
        <clipPath id="clip0_1239_8966">
            <rect width="250" height="250" fill="white" transform="translate(0.5)"/>
        </clipPath>
    </defs>
</svg>
